<?xml version="1.0" encoding="UTF-8"?>
<svg xmlns="http://www.w3.org/2000/svg" viewBox="190.10 349.00 121.72 51.35">
<g>
	<g>
		<g>
			<g>
				<path style="fill:#DB3535;" d="M254.15,356.942c0.698,1.999,0.221,3.762-1.127,3.762h-25.666c-1.348,0-1.894-1.763-1.274-3.762
					l0.629-2.027c0.516-1.66,1.791-2.91,2.886-2.91h20.843c1.095,0,2.419,1.249,2.999,2.91L254.15,356.942z"/>
				<g>
					<g>
						<path style="fill:#F4CC25;" d="M307.486,389.315l0.274-4.511c-0.556-4.351-5.096-8.745-8.122-9.811
							c-2.156-0.76-21.122-5.215-23.397-5.288c-1.233-0.36-16.03-8.864-21.328-10.91c-1.487-0.575-28.775-0.834-29.529-0.414
							c-2.51,1.394-11.803,4.783-18.844,9.225c-1.577,0.995-7.844,1.755-8.729,2.935c-2.228,2.971-3.602,18.775-3.602,18.775
							c-0.247,2.083,0.986,3.8,2.757,3.8h99.401C298.139,393.115,308.265,391.398,307.486,389.315z"/>
						<path style="fill:#F2A927;" d="M236.018,373.06c-16.993,0-31.641,5.528-38.393,13.503c-0.259,1.978-0.398,3.387-0.398,3.387
							c-0.232,1.735,0.927,3.165,2.594,3.165h12.907c7.711-5.805,20.145-9.576,34.179-9.576c11.755,0,22.39,2.645,30.066,6.916
							C272.169,380.441,255.657,373.06,236.018,373.06z"/>
						<path style="fill:#2A2A2B;" d="M265.05,369.716c1.714,0.03,1.7-0.822-1.116-2.843c-2.594-1.861-5.941-4.263-8.027-5.46
							c-2.448-1.403-9.764-2.237-16.245-2.279c-5.571-0.036-9.16,0.554-12.095,1.462c-2.03,0.629-10.848,3.843-14.68,6.841
							c-0.525,0.411-1.082,1.405,1.568,1.451C219.926,368.982,248.849,369.438,265.05,369.716z"/>
						<path style="fill:#F29B27;" d="M308.824,390.24v-1.758c0-3.781-0.339-4.646-2.956-4.646h-17.442v2.442
							c0,1.641-1.33,2.971-2.971,2.971h-67.344c-1.641,0-2.971-1.33-2.971-2.971v-2.442h-19.079c-1.633,0-2.956,1.33-2.956,2.971
							v3.432c0,1.641-0.06,2.971,1.573,2.971h104.84C304.593,393.211,308.824,391.88,308.824,390.24z"/>
						<path style="fill:#F29B27;" d="M222.605,388.772c0-5.921-4.817-10.738-10.738-10.738c-5.921,0-10.738,4.817-10.738,10.738
							c0,1.514,0.322,2.952,0.892,4.259h19.692C222.282,391.724,222.605,390.286,222.605,388.772z"/>
						<path style="fill:#F29B27;" d="M296.386,388.772c0-5.921-4.817-10.738-10.738-10.738c-5.921,0-10.738,4.817-10.738,10.738
							c0,1.514,0.322,2.952,0.892,4.259h19.692C296.064,391.724,296.386,390.286,296.386,388.772z"/>
						<path style="fill:#CE7305;" d="M299.517,391.267h-104.84c-1.499,0-1.571-1.122-1.573-2.576v1.548
							c0,1.641-0.06,2.971,1.573,2.971h104.84c5.076,0,9.306-1.33,9.306-2.971v-1.758c0-0.063-0.001-0.118-0.001-0.178
							C308.81,389.941,304.585,391.267,299.517,391.267z"/>
						<g>
							<path style="fill:#070707;" d="M221.514,388.492c0-5.32-4.328-9.647-9.647-9.647c-5.32,0-9.647,4.328-9.647,9.647
								c0,1.704,0.448,3.303,1.227,4.694h16.841C221.066,391.795,221.514,390.196,221.514,388.492z"/>
							<g>
								<g>
									<g>
										<g>
											<path style="fill:#2A2A2B;" d="M220.524,388.492c0,4.781-3.876,8.657-8.657,8.657c-4.781,0-8.657-3.876-8.657-8.657
												c0-4.781,3.876-8.657,8.657-8.657C216.648,379.835,220.524,383.711,220.524,388.492z"/>
											<path style="fill:#091119;" d="M219.276,388.492c0,4.092-3.317,7.409-7.409,7.409c-4.092,0-7.409-3.317-7.409-7.409
												c0-4.092,3.317-7.409,7.409-7.409C215.959,381.083,219.276,384.4,219.276,388.492z"/>
										</g>
									</g>
								</g>
							</g>
							<path style="fill:#2A2A2B;" d="M211.867,381.997c-3.587,0-6.495,2.908-6.495,6.495c0,3.587,2.908,6.495,6.495,6.495
								c3.587,0,6.495-2.908,6.495-6.495C218.362,384.905,215.454,381.997,211.867,381.997z M216.366,384.065
								c0.776,0.776,0.666,1.745,0,2.05l-2.231,1.024c-0.09,0.041-0.326-0.098-0.535-0.308c-0.209-0.209-0.349-0.445-0.308-0.535
								l1.024-2.231C214.621,383.4,215.59,383.289,216.366,384.065z M211.936,382.204c1.098,0,1.704,0.763,1.45,1.45l-0.854,2.301
								c-0.035,0.093-0.3,0.161-0.596,0.161c-0.296,0-0.562-0.068-0.596-0.161l-0.854-2.301
								C210.231,382.967,210.838,382.204,211.936,382.204z M207.487,384.021c0.776-0.776,1.745-0.666,2.05,0l1.024,2.231
								c0.041,0.09-0.098,0.326-0.308,0.535c-0.209,0.21-0.445,0.349-0.535,0.308l-2.231-1.024
								C206.821,385.766,206.711,384.797,207.487,384.021z M205.625,388.451c0-1.098,0.763-1.705,1.45-1.45l2.302,0.854
								c0.093,0.035,0.161,0.3,0.161,0.596s-0.068,0.561-0.161,0.596l-2.302,0.854C206.389,390.155,205.625,389.549,205.625,388.451
								z M207.442,392.9c-0.776-0.776-0.666-1.745,0-2.05l2.231-1.024c0.09-0.041,0.326,0.098,0.535,0.308
								c0.209,0.209,0.349,0.445,0.308,0.535l-1.024,2.231C209.187,393.565,208.218,393.676,207.442,392.9z M211.872,394.761
								c-1.098,0-1.704-0.763-1.45-1.45l0.854-2.302c0.034-0.093,0.3-0.161,0.596-0.161s0.562,0.068,0.596,0.161l0.854,2.302
								C213.577,393.998,212.97,394.761,211.872,394.761z M216.321,392.944c-0.776,0.776-1.745,0.666-2.05,0l-1.024-2.231
								c-0.041-0.09,0.098-0.326,0.308-0.535c0.209-0.209,0.445-0.349,0.535-0.308l2.231,1.024
								C216.987,391.199,217.097,392.168,216.321,392.944z M216.733,389.964l-2.302-0.854c-0.093-0.034-0.161-0.3-0.161-0.596
								c0-0.296,0.068-0.561,0.161-0.596l2.302-0.854c0.687-0.255,1.45,0.352,1.45,1.45
								C218.182,389.612,217.419,390.219,216.733,389.964z"/>
						</g>
						<g>
							<path style="fill:#070707;" d="M295.295,388.492c0-5.32-4.328-9.647-9.647-9.647c-5.32,0-9.647,4.328-9.647,9.647
								c0,1.704,0.448,3.303,1.227,4.694h16.841C294.847,391.795,295.295,390.196,295.295,388.492z"/>
							<g>
								<g>
									<g>
										<g>
											<path style="fill:#2A2A2B;" d="M294.305,388.492c0,4.781-3.876,8.657-8.657,8.657s-8.657-3.876-8.657-8.657
												c0-4.781,3.876-8.657,8.657-8.657S294.305,383.711,294.305,388.492z"/>
											
												<ellipse transform="matrix(0.2234 -0.9747 0.9747 0.2234 -156.8472 580.113)" style="fill:#091119;" cx="285.648" cy="388.492" rx="7.409" ry="7.409"/>
										</g>
									</g>
								</g>
							</g>
							<path style="fill:#2A2A2B;" d="M285.648,381.997c-3.587,0-6.495,2.908-6.495,6.495c0,3.587,2.908,6.495,6.495,6.495
								c3.587,0,6.495-2.908,6.495-6.495C292.143,384.905,289.235,381.997,285.648,381.997z M290.147,384.065
								c0.776,0.776,0.666,1.745,0,2.05l-2.231,1.024c-0.09,0.041-0.326-0.098-0.535-0.308c-0.209-0.209-0.349-0.445-0.308-0.535
								l1.024-2.231C288.402,383.4,289.371,383.289,290.147,384.065z M285.717,382.204c1.098,0,1.704,0.763,1.45,1.45l-0.854,2.301
								c-0.034,0.093-0.3,0.161-0.596,0.161c-0.296,0-0.562-0.068-0.596-0.161l-0.854-2.301
								C284.012,382.967,284.619,382.204,285.717,382.204z M281.268,384.021c0.776-0.776,1.745-0.666,2.05,0l1.024,2.231
								c0.041,0.09-0.098,0.326-0.308,0.535c-0.209,0.21-0.445,0.349-0.535,0.308l-2.231-1.024
								C280.602,385.766,280.492,384.797,281.268,384.021z M279.407,388.451c0-1.098,0.763-1.705,1.45-1.45l2.301,0.854
								c0.093,0.035,0.161,0.3,0.161,0.596s-0.068,0.561-0.161,0.596l-2.301,0.854C280.17,390.155,279.407,389.549,279.407,388.451z
								 M281.223,392.9c-0.776-0.776-0.666-1.745,0-2.05l2.231-1.024c0.09-0.041,0.326,0.098,0.535,0.308
								c0.209,0.209,0.349,0.445,0.308,0.535l-1.024,2.231C282.968,393.565,281.999,393.676,281.223,392.9z M285.654,394.761
								c-1.098,0-1.705-0.763-1.45-1.45l0.854-2.302c0.034-0.093,0.3-0.161,0.596-0.161c0.296,0,0.561,0.068,0.596,0.161
								l0.854,2.302C287.358,393.998,286.751,394.761,285.654,394.761z M290.102,392.944c-0.776,0.776-1.745,0.666-2.05,0
								l-1.024-2.231c-0.041-0.09,0.098-0.326,0.308-0.535c0.209-0.209,0.445-0.349,0.535-0.308l2.231,1.024
								C290.768,391.199,290.879,392.168,290.102,392.944z M290.514,389.964l-2.302-0.854c-0.093-0.034-0.161-0.3-0.161-0.596
								c0-0.296,0.068-0.561,0.161-0.596l2.302-0.854c0.687-0.255,1.45,0.352,1.45,1.45
								C291.964,389.612,291.2,390.219,290.514,389.964z"/>
						</g>
						<path style="opacity:0.3;fill:#091119;" d="M303.658,377.703l-8.266,0.09c-0.323,0-0.356,0.352-0.095,0.77l1.775,2.801
							c0.187,0.3,0.564,0.579,0.856,0.635l9.483,1.555C307.192,381.874,306.465,379.615,303.658,377.703z"/>
						<path style="fill:#FFFFFF;" d="M307.417,383.344c-0.17-0.828-0.503-3.149-3.2-5.236h-8.126
							c-0.329-0.005-0.399,0.297-0.176,0.662l1.399,2.284c0.167,0.272,0.534,0.529,0.833,0.584L307.417,383.344z"/>
						<path style="fill:#F49625;" d="M297.687,378.135l-1.596-0.027c-0.329-0.005-0.399,0.297-0.176,0.662l1.399,2.284
							c0.167,0.272,0.534,0.529,0.833,0.584l2.333,0.429L297.687,378.135z"/>
						<path style="fill:#CE7305;" d="M307.842,386.872c0,0.65-0.527,1.176-1.176,1.176h-3.435c-0.65,0-1.176-0.526-1.176-1.176l0,0
							c0-0.65,0.527-1.176,1.176-1.176h3.435C307.316,385.696,307.842,386.223,307.842,386.872L307.842,386.872z"/>
						<path style="fill:#FFFFFF;" d="M305.49,386.826c0,0.504-0.409,0.913-0.913,0.913h-0.867c-0.504,0-0.913-0.409-0.913-0.913l0,0
							c0-0.504,0.409-0.913,0.913-0.913h0.867C305.081,385.913,305.49,386.322,305.49,386.826L305.49,386.826z"/>
						<path style="opacity:0.3;fill:#091119;" d="M195.79,376.879h1.75c1.094,0,2.172-0.887,2.409-1.981l0.371-1.715
							c0.236-1.094-0.459-1.981-1.553-1.981h-1.464C196.705,372.506,196.201,374.611,195.79,376.879z"/>
						<path style="fill:#DB3535;" d="M195.873,376.384c0.395-2.068,0.813-3.641,1.244-4.686h1.661c0.364,0,0.672,0.132,0.867,0.373
							c0.207,0.255,0.274,0.609,0.19,0.998l-0.371,1.715c-0.188,0.868-1.074,1.6-1.936,1.6H195.873z"/>
						<path style="fill:#F49625;" d="M196.194,374.84c-0.108,0.48-0.215,0.993-0.321,1.545h1.656c0.843,0,1.705-0.702,1.918-1.545
							H196.194z"/>
					</g>
					<path style="fill:#2A2A2B;" d="M276.241,369.705c-1.233-0.36-13.586-7.455-18.79-9.731c-0.18-0.078-0.369-0.15-0.555-0.224
						l9.771,6.885c1.765,1.244,3.679,2.314,4.275,2.391C270.941,369.026,276.494,369.713,276.241,369.705z"/>
					<rect x="238.933" y="369.202" style="opacity:0.3;fill:#2A2A2B;" width="0.252" height="20.069"/>
					<polygon style="opacity:0.3;fill:#2A2A2B;" points="265.133,389.271 264.881,389.271 265.908,369.202 266.159,369.202 					"/>
					<path style="opacity:0.3;fill:#2A2A2B;" d="M214.154,378.009c0.072,0.007,0.126,0.04,0.19,0.059l-1.646-9.998h-0.252
						l1.636,9.94C214.107,378.01,214.131,378.006,214.154,378.009z"/>
					<path style="fill:#2A2A2B;" d="M219.787,370.669c0,0.301-0.244,0.545-0.545,0.545h-4.446c-0.301,0-0.545-0.244-0.545-0.545l0,0
						c0-0.301,0.244-0.545,0.545-0.545h4.446C219.543,370.124,219.787,370.368,219.787,370.669L219.787,370.669z"/>
					<path style="fill:#2A2A2B;" d="M245.371,370.753c0,0.301-0.244,0.545-0.545,0.545h-4.446c-0.301,0-0.545-0.244-0.545-0.545l0,0
						c0-0.301,0.244-0.545,0.545-0.545h4.446C245.127,370.208,245.371,370.452,245.371,370.753L245.371,370.753z"/>
					<g>
						<path style="opacity:0.2;fill:#F9F9F9;" d="M211.867,378.805c2.931,0,5.568,1.361,7.422,3.521
							c-1.501-2.753-4.262-4.609-7.422-4.609c-3.16,0-5.921,1.856-7.422,4.609C206.299,380.166,208.936,378.805,211.867,378.805z"/>
					</g>
					<g>
						<path style="opacity:0.2;fill:#F9F9F9;" d="M285.648,378.034c2.931,0,5.568,1.361,7.422,3.521
							c-1.501-2.753-4.262-4.609-7.422-4.609s-5.921,1.856-7.422,4.609C280.08,379.395,282.717,378.034,285.648,378.034z"/>
					</g>
					<path style="fill:#80C2DC;" d="M237.455,369.1l-20.594-0.414c-1.528-0.026-2.241-1.843-2.023-2.001
						c3.712-2.705,10.748-5.265,12.789-5.896c2.67-0.827,5.588-1.388,10.65-1.449L237.455,369.1z M262.637,366.191
						c-2.387-1.707-5.053-3.583-6.829-4.603c-2.33-1.336-9.241-2.136-15.32-2.241l0.53,9.791l20.765,0.338
						C262.325,369.476,263.034,366.475,262.637,366.191z M270.984,368.877c0,0,3.321,0.411,4.706,0.593
						c-2.731-1.298-13.411-7.375-18.193-9.475l9.212,6.491C268.474,367.73,270.388,368.8,270.984,368.877z"/>
				</g>
				<g>
					<rect x="246.508" y="375.098" style="fill:#091119;" width="2.568" height="2.568"/>
					<polygon style="fill:#091119;" points="244.063,377.665 244.063,375.098 241.495,375.098 241.495,377.665 243.941,377.665 
						243.941,380.089 241.495,380.089 241.495,377.665 239.05,377.665 239.05,375.098 236.482,375.098 236.482,377.665 
						238.927,377.665 238.927,380.089 236.482,380.089 236.482,377.665 234.036,377.665 234.036,375.098 231.468,375.098 
						231.468,377.665 233.914,377.665 233.914,380.089 231.468,380.089 231.468,382.656 234.036,382.656 234.036,380.233 
						236.482,380.233 236.482,382.656 239.05,382.656 239.05,380.233 241.495,380.233 241.495,382.656 244.063,382.656 
						244.063,380.233 246.508,380.233 246.508,382.656 249.076,382.656 249.076,380.089 246.508,380.089 246.508,377.665 					"/>
				</g>
				<path style="opacity:0.6;fill:#FFFFFF;" d="M252.925,353.836c-0.67-1.092-1.642-1.831-2.482-1.831h-20.843
					c-0.84,0-1.783,0.738-2.411,1.831H252.925z"/>
				<g>
					<rect x="243.435" y="352.847" style="fill:#091119;" width="1.485" height="1.485"/>
					<polygon style="fill:#091119;" points="242.021,354.331 242.021,352.847 240.537,352.847 240.537,354.331 241.951,354.331 
						241.951,355.732 240.537,355.732 240.537,354.331 239.123,354.331 239.123,352.847 237.638,352.847 237.638,354.331 
						239.052,354.331 239.052,355.732 237.638,355.732 237.638,354.331 236.224,354.331 236.224,352.847 234.74,352.847 
						234.74,354.331 236.154,354.331 236.154,355.732 234.74,355.732 234.74,357.217 236.224,357.217 236.224,355.816 
						237.638,355.816 237.638,357.217 239.123,357.217 239.123,355.816 240.537,355.816 240.537,357.217 242.021,357.217 
						242.021,355.816 243.435,355.816 243.435,357.217 244.92,357.217 244.92,355.732 243.435,355.732 243.435,354.331 					"/>
				</g>
			</g>
			<path style="opacity:0.7;fill:#FFFFFF;" d="M237.946,363.265l-0.491,5.835l-5.239-0.105L237.946,363.265z M215.664,368.221
				l4.516-4.515c-1.957,0.902-3.9,1.928-5.342,2.979C214.689,366.793,214.984,367.664,215.664,368.221z M221.287,368.775
				l3.924,0.079l9.352-9.352c-1.837,0.145-3.341,0.38-4.686,0.683L221.287,368.775z M247.692,359.784
				c-1.883-0.199-3.893-0.336-5.863-0.402l-1.271,1.271l0.322,5.943C243.151,364.325,245.421,362.055,247.692,359.784z
				 M258.556,363.337c-1.02-0.688-1.971-1.303-2.748-1.749c-0.381-0.219-0.887-0.422-1.491-0.611l-8.244,8.244l6.494,0.106
				L258.556,363.337z M257.42,369.405l0.754,0.012l3.739-3.739c-0.149-0.106-0.299-0.212-0.448-0.318
				C260.117,366.709,258.768,368.057,257.42,369.405z M251.797,360.372c-0.429-0.081-0.873-0.16-1.339-0.232l-9.005,9.005
				l1.546,0.025L251.797,360.372z M267.454,366.994l1.241-1.241c-0.793-0.429-1.604-0.867-2.426-1.307
				c-0.338,0.338-0.676,0.676-1.014,1.014l1.455,1.025C266.956,366.66,267.205,366.829,267.454,366.994z M270.721,366.849
				c-0.443,0.443-0.885,0.885-1.328,1.328c0.721,0.398,1.307,0.663,1.591,0.7c0,0,3.321,0.411,4.706,0.593
				C274.765,369.031,272.928,368.043,270.721,366.849z"/>
		</g>
		<g style="opacity:0.6;">
			<path style="fill:#EDEDED;" d="M203.423,383.836h-7.362c-1.633,0-2.956,1.33-2.956,2.971v3.432c0,1.027-0.023,1.931,0.359,2.465
				c0-0.142,0-0.284,0-0.432v-3.432c0-1.641,1.323-2.971,2.956-2.971h6.172C202.794,385.155,203.07,384.473,203.423,383.836z"/>
		</g>
		<g>
			<path style="opacity:0.6;fill:#FFFFFF;" d="M222.443,386.909c-0.056,0.702-0.253,2.868-0.253,2.868l52.732-0.513
				C273.999,388.611,222.443,386.909,222.443,386.909z"/>
			<path style="opacity:0.6;fill:#FFFFFF;" d="M305.867,383.836h-11.775c0.352,0.637,12.564,1.117,12.564,1.117
				c1.434,0,1.752,1.18,2.137,2.037C308.671,384.47,308.096,383.836,305.867,383.836z"/>
		</g>
		<g style="opacity:0.6;">
			<path style="fill:#FFFFFF;" d="M299.638,374.992c-2.156-0.76-21.122-5.215-23.397-5.288c-1.233-0.36-16.03-8.864-21.328-10.91
				c-1.487-0.575-28.775-0.834-29.529-0.414c-2.51,1.394-11.803,4.783-18.844,9.225c-1.577,0.995-7.844,1.755-8.729,2.935
				c-1.363,1.818-2.406,8.434-3.011,13.301h0.157c0.62-4.141,1.602-9.186,2.853-10.659c0.885-1.042,12.766-3.374,13.978-4.712
				c3.148-3.476,14.24-7.508,16.946-8.208c6.127-1.584,15.263-1.578,25.04,0.345c3.713,0.564,13.037,9.018,16.23,10.044
				c5.772,1.384,23.344,4.823,25.501,5.494c2.515,0.783,10.193,4.563,11.641,7.696h0.422
				C306.536,379.823,302.441,375.98,299.638,374.992z"/>
		</g>
	</g>
	<g>
		<path style="opacity:0.2;fill:#EDEDED;" d="M211.867,380.841c4.611,0,8.369,3.608,8.632,8.154c0.01-0.167,0.025-0.333,0.025-0.503
			c0-4.781-3.876-8.657-8.657-8.657c-4.781,0-8.657,3.876-8.657,8.657c0,0.17,0.016,0.336,0.025,0.503
			C203.497,384.45,207.256,380.841,211.867,380.841z"/>
		<path style="opacity:0.2;fill:#EDEDED;" d="M211.867,395.968c-3.976,0.101-7.217-2.929-7.443-6.842
			c-0.005,0.082-0.008,0.164-0.012,0.245c0.101,4.032,3.396,7.19,7.455,7.087c4.059-0.103,7.354-3.427,7.455-7.464
			c-0.005-0.081-0.008-0.163-0.012-0.245C219.083,392.674,215.843,395.867,211.867,395.968z"/>
	</g>
	<g>
		<path style="opacity:0.2;fill:#EDEDED;" d="M285.601,380.841c4.611,0,8.369,3.608,8.632,8.154c0.01-0.167,0.025-0.333,0.025-0.503
			c0-4.781-3.876-8.657-8.657-8.657s-8.657,3.876-8.657,8.657c0,0.17,0.016,0.336,0.025,0.503
			C277.232,384.45,280.99,380.841,285.601,380.841z"/>
		<path style="opacity:0.2;fill:#EDEDED;" d="M285.601,395.968c-3.976,0.101-7.217-2.929-7.443-6.842
			c-0.005,0.082-0.008,0.164-0.012,0.245c0.101,4.032,3.396,7.19,7.455,7.087c4.059-0.103,7.354-3.427,7.455-7.464
			c-0.005-0.081-0.008-0.163-0.012-0.245C292.817,392.674,289.577,395.867,285.601,395.968z"/>
	</g>
</g>
</svg>
